<?xml version="1.0" encoding="utf-8"?>
<!-- Generator: Adobe Illustrator 24.0.1, SVG Export Plug-In . SVG Version: 6.00 Build 0)  -->
<svg version="1.1" id="openai-horizontal" xmlns="http://www.w3.org/2000/svg" xmlns:xlink="http://www.w3.org/1999/xlink" x="0px"
	 y="0px" viewBox="0 0 29.1 29.5" style="enable-background:new 0 0 29.1 29.5;" xml:space="preserve">
<style type="text/css">
	.st0{fill:url(#SVGID_1_);}
	.st1{fill:#FFFFFF;}
</style>
<linearGradient id="SVGID_1_" gradientUnits="userSpaceOnUse" x1="-2.993642e-02" y1="0.1701" x2="28.0047" y2="28.2047">
	<stop  offset="0" style="stop-color:#58C7FB"/>
	<stop  offset="1" style="stop-color:#FF00E7"/>
</linearGradient>
<circle class="st0" cx="14.6" cy="14.8" r="14.7"/>
<path class="st1" d="M24.4,12.8c0.5-1.6,0.3-3.3-0.5-4.7c-1.2-2.2-3.8-3.3-6.2-2.8c-1.1-1.2-2.7-1.9-4.3-1.9c-2.5,0-4.7,1.6-5.5,4
	c-1.7,0.3-3,1.3-3.9,2.7c-1.2,2.2-1,4.9,0.7,6.8c-0.5,1.6-0.3,3.3,0.5,4.7c1.2,2.2,3.7,3.3,6.2,2.8c1.1,1.2,2.6,1.9,4.3,1.9
	c2.5,0,4.7-1.6,5.5-4c1.6-0.3,3-1.3,3.8-2.8C26.4,17.3,26.1,14.6,24.4,12.8L24.4,12.8z M22.6,8.8c0.5,0.9,0.7,1.9,0.5,2.9
	c0,0-0.1-0.1-0.2-0.1L18.4,9c-0.2-0.2-0.5-0.2-0.8,0l-5.4,3.1V9.8l4.5-2.6C18.8,6,21.4,6.8,22.6,8.8z M12.3,13.5l2.3-1.3l2.3,1.3
	v2.6l-2.3,1.3l-2.3-1.3C12.3,16.2,12.3,13.5,12.3,13.5z M13.3,4.8c1,0,2,0.3,2.7,1c0,0-0.1,0.1-0.2,0.1l-4.6,2.6
	C11.2,8.7,11,9,11,9.2v6.2l-1.9-1.2v-5C9.1,6.8,11,4.8,13.3,4.8L13.3,4.8z M5.3,10.9L5.3,10.9C5.8,10,6.7,9.3,7.6,9v5.4
	c0,0.3,0.2,0.5,0.4,0.6l5.4,3.1l-1.9,1.2L7,16.8C4.9,15.6,4.2,12.9,5.3,10.9z M6.5,20.8L6.5,20.8C6,20,5.8,19,6,18c0,0,0,0,0.1,0
	l4.6,2.6c0.2,0.2,0.5,0.2,0.8,0l5.4-3.1v2.3l-4.4,2.6C10.3,23.6,7.8,22.9,6.5,20.8L6.5,20.8z M15.7,24.8c-1,0-2-0.4-2.7-1
	c0,0,0.1-0.1,0.2-0.1l4.6-2.6c0.2-0.2,0.4-0.4,0.4-0.6v-6.2l1.9,1.2v5.1C20.1,22.8,18.1,24.8,15.7,24.8L15.7,24.8z M23.8,18.7
	c-0.5,0.9-1.3,1.6-2.3,1.9v-5.4c0-0.3-0.2-0.5-0.4-0.6l0,0l-5.4-3.1l1.9-1.1L22,13C24.3,14.1,25,16.7,23.8,18.7L23.8,18.7z"/>
</svg>
