<?xml version="1.0" encoding="utf-8"?>
<!-- Generator: Adobe Illustrator 24.0.1, SVG Export Plug-In . SVG Version: 6.00 Build 0)  -->
<svg version="1.1" id="openai-horizontal" xmlns="http://www.w3.org/2000/svg" xmlns:xlink="http://www.w3.org/1999/xlink" x="0px"
	 y="0px" viewBox="0 0 29.1 29.5" style="enable-background:new 0 0 29.1 29.5;" xml:space="preserve">
<style type="text/css">
	.st0{fill:url(#SVGID_1_);}
</style>
<linearGradient id="SVGID_1_" gradientUnits="userSpaceOnUse" x1="-0.122" y1="0.1475" x2="28.3112" y2="28.466">
	<stop  offset="0" style="stop-color:#58C7FB"/>
	<stop  offset="1" style="stop-color:#FF00E7"/>
</linearGradient>
<path class="st0" d="M27.2,12.1c0.7-2,0.4-4.2-0.6-6c-1.6-2.8-4.9-4.2-8-3.6C17.2,0.9,15.1,0,13,0C9.8,0,6.9,2.1,5.9,5.2
	C3.8,5.6,2.1,6.9,1,8.7c-1.6,2.8-1.3,6.3,0.9,8.7c-0.7,2-0.4,4.2,0.6,6c1.6,2.8,4.8,4.3,8,3.6c1.4,1.6,3.4,2.5,5.5,2.5
	c3.2,0,6.1-2.1,7.1-5.1c2.1-0.4,3.9-1.7,4.9-3.6C29.8,18,29.4,14.5,27.2,12.1L27.2,12.1z M24.9,7c0.6,1.1,0.9,2.4,0.7,3.7
	c0,0-0.1-0.1-0.2-0.1l-5.9-3.4c-0.3-0.2-0.7-0.2-1,0l-6.9,4V8.3L17.4,5C20,3.4,23.4,4.4,24.9,7z M11.7,13.1l2.9-1.7l2.9,1.7v3.4
	l-2.9,1.7l-2.9-1.7C11.7,16.5,11.7,13.1,11.7,13.1z M13,1.9c1.3,0,2.6,0.4,3.5,1.3c0,0-0.1,0.1-0.2,0.1l-5.9,3.4
	C10.2,6.9,10,7.2,10,7.5v8L7.5,14V7.5C7.5,4.4,10,1.9,13,1.9L13,1.9z M2.7,9.7L2.7,9.7c0.6-1.1,1.7-2,2.9-2.4v7
	c0,0.4,0.2,0.7,0.5,0.8l6.9,4l-2.5,1.5l-5.7-3.3C2.1,15.7,1.2,12.3,2.7,9.7z M4.2,22.5L4.2,22.5c-0.7-1.1-0.9-2.4-0.7-3.7
	c0,0,0.1,0.1,0.2,0.1l5.9,3.4c0.3,0.2,0.7,0.2,1,0l6.9-4v2.9l-5.7,3.3C9.1,26.1,5.8,25.2,4.2,22.5L4.2,22.5z M16.1,27.6
	c-1.3,0-2.6-0.5-3.5-1.3c0,0,0.1-0.1,0.2-0.1l5.9-3.4c0.3-0.2,0.5-0.5,0.5-0.8v-8l2.5,1.5v6.6C21.7,25.1,19.2,27.6,16.1,27.6
	L16.1,27.6z M26.5,19.8c-0.6,1.1-1.7,2-2.9,2.4v-7c0-0.4-0.2-0.7-0.5-0.8l0,0l-6.9-4L18.7,9l5.7,3.3C27.1,13.8,28,17.2,26.5,19.8
	L26.5,19.8z"/>
</svg>
